<svg preserveAspectRatio="none" overflow="visible" style="display: block;" width="20" height="20" viewBox="0 0 20 20" fill="none" xmlns="http://www.w3.org/2000/svg">
<g id="Delivery Instructions Icons">
<g id="M-Icon/System-Icon/call-ringing" clip-path="url(#clip0_0_140)">
<g id="vector">
<path d="M15.1181 14.9118C15.1181 14.8299 15.0656 14.7575 14.989 14.7313L14.9733 14.7266L12.9156 14.212C12.8502 14.1959 12.781 14.215 12.733 14.2628L10.6968 16.299C11.6661 16.6223 12.7032 16.7977 13.7813 16.7977H14.9271C15.0327 16.7977 15.1181 16.7123 15.1181 16.6067V14.9118ZM16.2639 16.6067C16.2639 17.3451 15.6655 17.9435 14.9271 17.9435H13.7813C12.2449 17.9435 10.7829 17.6251 9.45761 17.0509C9.44628 17.0465 9.43504 17.0417 9.42395 17.0365C6.91514 15.9395 4.89973 13.9241 3.80276 11.4153C3.79756 11.4042 3.79277 11.393 3.78831 11.3816C3.21418 10.0563 2.89583 8.59441 2.89583 7.05807V5.91224C2.89583 5.17378 3.49418 4.57543 4.23264 4.57543H5.92752C6.54098 4.57543 7.0756 4.9932 7.22432 5.58802L7.73858 7.64432C7.85414 8.10151 7.71983 8.58353 7.38778 8.91558L5.00874 11.2944C5.96472 13.2705 7.5687 14.8745 9.5448 15.8305L11.9238 13.4515L11.9248 13.4505C12.2462 13.1307 12.7074 12.9953 13.1502 13.0903L13.193 13.1003L13.1936 13.1004L15.2513 13.615L15.3065 13.6301C15.8718 13.7972 16.2639 14.3175 16.2639 14.9118V16.6067ZM4.04167 7.05807C4.04167 8.1361 4.21693 9.17316 4.54026 10.1424L6.57755 8.10534C6.62554 8.05735 6.64394 7.98926 6.62772 7.92509C6.6276 7.92464 6.62746 7.92415 6.62734 7.9237L6.11271 5.86599C6.09145 5.78096 6.01491 5.72127 5.92752 5.72127H4.23264C4.127 5.72127 4.04167 5.8066 4.04167 5.91224V7.05807Z" fill="#989FB3"/>
<path d="M15.8819 10.4965C15.8819 7.43751 13.4028 4.95833 10.3437 4.95833C10.0273 4.95833 9.77083 4.70183 9.77083 4.38542C9.77083 4.069 10.0273 3.8125 10.3437 3.8125C14.0356 3.8125 17.0278 6.80468 17.0278 10.4965C17.0278 10.8129 16.7713 11.0694 16.4549 11.0694C16.1384 11.0694 15.8819 10.8129 15.8819 10.4965Z" fill="#989FB3"/>
<path d="M13.2083 10.4965C13.2083 8.91468 11.9256 7.63194 10.3437 7.63194C10.0273 7.63194 9.77083 7.37544 9.77083 7.05903C9.77083 6.74261 10.0273 6.48611 10.3437 6.48611C12.5584 6.48611 14.3542 8.28185 14.3542 10.4965C14.3542 10.8129 14.0977 11.0694 13.7813 11.0694C13.4648 11.0694 13.2083 10.8129 13.2083 10.4965Z" fill="#989FB3"/>
</g>
</g>
<path id="Line 1287" d="M3.02165 17.135L17.6801 2.4766" stroke="#989FB3" stroke-width="1.83333" stroke-linecap="round"/>
<path id="Line 1288" d="M3.28532 18.5014L19.3254 2.46134" stroke="#F2F3F7" stroke-width="1.33333" stroke-linecap="round"/>
</g>
<defs>
<clipPath id="clip0_0_140">
<rect width="18.3333" height="18.3333" fill="white" transform="translate(0.833333 0.833333)"/>
</clipPath>
</defs>
</svg>
